<?xml version="1.0" encoding="UTF-8"?>
<svg width="25px" height="13px" viewBox="0 0 25 13" version="1.1" xmlns="http://www.w3.org/2000/svg" xmlns:xlink="http://www.w3.org/1999/xlink">
    <!-- Generator: Sketch 52.5 (67469) - http://www.bohemiancoding.com/sketch -->
    <title>VD / Icons / Arrow right Copy</title>
    <desc>Created with Sketch.</desc>
    <g id="VD-/-Icons-/-Arrow-right-Copy" stroke="none" stroke-width="1" fill="none" fill-rule="evenodd">
        <path d="M1.77685547,7.5 C1.22457072,7.5 0.776855469,7.05228475 0.776855469,6.5 C0.776855469,5.94771525 1.22457072,5.5 1.77685547,5.5 L22.5941235,5.5 C23.1464082,5.5 23.5941235,5.94771525 23.5941235,6.5 C23.5941235,7.05228475 23.1464082,7.5 22.5941235,7.5 L1.77685547,7.5 Z" id="Line-4" fill="#D7D2CB" fill-rule="nonzero"></path>
        <path d="M23.6260662,5.71330819 C24.0605441,6.05425893 24.1363629,6.68286804 23.7954121,7.11734593 C23.4544614,7.55182382 22.8258523,7.62764255 22.3913744,7.28669181 L15.3826541,1.78669181 C14.9481762,1.44574107 14.8723574,0.81713196 15.2133082,0.382654071 C15.5542589,-0.0518238186 16.182868,-0.127642552 16.6173459,0.21330819 L23.6260662,5.71330819 Z" id="Line-5" fill="#D7D2CB" fill-rule="nonzero"></path>
        <path d="M22.4280007,5.71182903 C22.8632955,5.37192187 23.4917208,5.44924884 23.831628,5.88454365 C24.1715352,6.31983846 24.0942082,6.94826382 23.6589134,7.28817097 L16.6154563,12.788171 C16.1801615,13.1280781 15.5517362,13.0507512 15.211829,12.6154563 C14.8719219,12.1801615 14.9492488,11.5517362 15.3845437,11.211829 L22.4280007,5.71182903 Z" id="Line-6" fill="#D7D2CB" fill-rule="nonzero"></path>
    </g>
</svg>