<?xml version="1.0" encoding="UTF-8"?>
<svg width="25px" height="13px" viewBox="0 0 25 13" version="1.1" xmlns="http://www.w3.org/2000/svg" xmlns:xlink="http://www.w3.org/1999/xlink">
    <!-- Generator: Sketch 52.5 (67469) - http://www.bohemiancoding.com/sketch -->
    <title>VD / Icons / Arrow right</title>
    <desc>Created with Sketch.</desc>
    <g id="VD-/-Icons-/-Arrow-right" stroke="none" stroke-width="1" fill="none" fill-rule="evenodd">
        <path d="M1.53469223,7.75 C0.978079359,7.75 0.526855469,7.19035594 0.526855469,6.5 C0.526855469,5.80964406 0.978079359,5.25 1.53469223,5.25 L18.3190187,5.25 C18.8756316,5.25 19.3268555,5.80964406 19.3268555,6.5 C19.3268555,7.19035594 18.8756316,7.75 18.3190187,7.75 L1.53469223,7.75 Z" id="Line-4" fill="#0071B1" fill-rule="nonzero"></path>
        <path d="M19.7804027,5.51663524 C20.3235001,5.94282367 20.4182735,6.72858505 19.9920851,7.27168241 C19.5658966,7.81477977 18.7801353,7.90955319 18.2370379,7.48336476 L11.2283176,1.98336476 C10.6852202,1.55717633 10.5904468,0.77141495 11.0166352,0.228317589 C11.4428237,-0.314779773 12.228585,-0.40955319 12.7716824,0.0166352376 L19.7804027,5.51663524 Z" id="Line-5" fill="#0071B1" fill-rule="nonzero"></path>
        <path d="M18.2741366,5.51478628 C18.8182551,5.08990234 19.6037868,5.18656105 20.0286707,5.73067956 C20.4535547,6.27479807 20.356896,7.06032977 19.8127775,7.48521372 L12.7693204,12.9852137 C12.2252019,13.4100977 11.4396702,13.3134389 11.0147863,12.7693204 C10.5899023,12.2252019 10.6865611,11.4396702 11.2306796,11.0147863 L18.2741366,5.51478628 Z" id="Line-6" fill="#0071B1" fill-rule="nonzero"></path>
    </g>
</svg>