<?xml version="1.0" encoding="UTF-8"?>
<svg width="52px" height="52px" viewBox="0 0 52 52" version="1.1" xmlns="http://www.w3.org/2000/svg" xmlns:xlink="http://www.w3.org/1999/xlink">
    <!-- Generator: Sketch 52.5 (67469) - http://www.bohemiancoding.com/sketch -->
    <title>VD / Icons / fb</title>
    <desc>Created with Sketch.</desc>
    <g id="VD-/-Icons-/-fb" stroke="none" stroke-width="1" fill="none" fill-rule="evenodd">
        <circle id="Oval" fill="#FF7F32" cx="26" cy="26" r="26"></circle>
        <path d="M28.1986831,40.6929384 L22.3030741,40.6929384 L22.3030741,25.8729099 L20.226921,25.8729099 C19.5,25.8729099 19.5,25.8729099 19.5,25.1058844 L19.5,21.0211001 L19.5,20.6214001 L22.3001022,20.6214001 C22.3001022,20.4589052 22.2983191,20.3294074 22.3001022,20.199287 C22.3167447,18.9410415 22.2656284,17.6759474 22.3648891,16.4245503 C22.5812418,13.7075866 24.1266176,11.3467419 27.25957,11.0846333 C29.014166,10.9377031 30.7865933,11.0298458 32.5506993,11.0155263 C32.5596149,11.0155263 32.5685306,11.0261103 32.6196468,11.0603525 L32.6196468,13.5369981 L32.6196468,16.1057865 L32.263616,16.1057865 C31.3542217,16.1057865 30.4436387,16.102051 29.5342445,16.1070316 C28.7490746,16.1107672 28.2735744,16.4942799 28.2319681,17.3061316 C28.1760968,18.3894306 28.2182975,19.4777103 28.2182975,20.5958741 L32.688,20.5958741 C32.65947,20.962577 32.6386668,21.2950377 32.6065706,21.6262533 C32.4793743,22.9455123 32.3438567,24.2635261 32.2237929,25.5834076 C32.201801,25.8231031 32.103729,25.8785132 31.8927258,25.877268 C30.7990752,25.8685518 29.7048302,25.8729099 28.6105852,25.8729099 L28.1986831,25.8729099 L28.1986831,40.6929384 Z" id="Fill-1" fill="#FFFFFF"></path>
    </g>
</svg>