<?xml version="1.0" encoding="UTF-8"?>
<svg width="339px" height="60px" viewBox="0 0 339 60" version="1.1" xmlns="http://www.w3.org/2000/svg" xmlns:xlink="http://www.w3.org/1999/xlink">
    <!-- Generator: Sketch 52.5 (67469) - http://www.bohemiancoding.com/sketch -->
    <title>VD / Logo / NIGHT SHELTER</title>
    <desc>Created with Sketch.</desc>
    <g id="VD-/-Logo-/-NIGHT-SHELTER" stroke="none" stroke-width="1" fill="none" fill-rule="evenodd">
        <path d="M89,56.5739645 L89,33.4260355 L94.4444498,33.4260355 L100.573963,44.9289941 L102.881544,50.0414201 L103.025768,50.0414201 C102.905581,48.8106447 102.767368,47.4378774 102.611124,45.9230769 C102.454881,44.4082764 102.376761,42.9645039 102.376761,41.591716 L102.376761,33.4260355 L107.424595,33.4260355 L107.424595,56.5739645 L101.980145,56.5739645 L95.8506322,45.035503 L93.5430508,39.9940828 L93.398827,39.9940828 C93.5190141,41.2721957 93.6572272,42.6449631 93.8134705,44.112426 C93.9697138,45.579889 94.0478342,46.9999931 94.0478342,48.3727811 L94.0478342,56.5739645 L89,56.5739645 Z M113.65827,56.5739645 L113.65827,33.4260355 L118.958496,33.4260355 L118.958496,56.5739645 L113.65827,56.5739645 Z M134.574732,57 C132.964224,57 131.455899,56.7455647 130.049709,56.2366864 C128.64352,55.7278081 127.423639,54.9763363 126.390029,53.9822485 C125.35642,52.9881607 124.545169,51.7514867 123.956252,50.2721893 C123.367335,48.792892 123.072881,47.0828499 123.072881,45.1420118 C123.072881,43.2248425 123.373344,41.5148004 123.97428,40.0118343 C124.575216,38.5088682 125.398485,37.2366916 126.444113,36.1952663 C127.489741,35.1538409 128.709622,34.3609495 130.103793,33.816568 C131.497964,33.2721866 132.976243,33 134.538676,33 C136.245333,33 137.711594,33.3076892 138.937503,33.9230769 C140.163412,34.5384646 141.16095,35.2366825 141.930148,36.0177515 L139.153839,39.3550296 C138.552903,38.8343169 137.915921,38.3964515 137.242873,38.0414201 C136.569825,37.6863888 135.728528,37.5088757 134.718956,37.5088757 C133.805534,37.5088757 132.970246,37.6804717 132.213067,38.0236686 C131.455888,38.3668656 130.800878,38.857985 130.248017,39.4970414 C129.695156,40.1360979 129.268498,40.9171551 128.96803,41.8402367 C128.667563,42.7633182 128.517331,43.8047279 128.517331,44.964497 C128.517331,47.3550415 129.064174,49.207094 130.157877,50.5207101 C131.25158,51.8343261 132.904128,52.4911243 135.115571,52.4911243 C135.59632,52.4911243 136.065043,52.4319533 136.521754,52.3136095 C136.978465,52.1952657 137.351039,52.0177527 137.639488,51.7810651 L137.639488,47.8047337 L133.745445,47.8047337 L133.745445,43.5443787 L142.326763,43.5443787 L142.326763,54.1952663 C141.509491,54.9763353 140.427823,55.6390505 139.081727,56.183432 C137.735631,56.7278134 136.233314,57 134.574732,57 Z M147.875375,56.5739645 L147.875375,33.4260355 L153.175601,33.4260355 L153.175601,42.3372781 L161.288191,42.3372781 L161.288191,33.4260355 L166.624473,33.4260355 L166.624473,56.5739645 L161.288191,56.5739645 L161.288191,46.9171598 L153.175601,46.9171598 L153.175601,56.5739645 L147.875375,56.5739645 Z M177.437255,56.5739645 L177.437255,37.8284024 L170.983238,37.8284024 L170.983238,33.4260355 L189.227553,33.4260355 L189.227553,37.8284024 L182.773537,37.8284024 L182.773537,56.5739645 L177.437255,56.5739645 Z M205.148262,57 C203.609867,57 202.077504,56.7218963 200.551127,56.1656805 C199.024751,55.6094647 197.660647,54.7751535 196.458776,53.6627219 L199.487477,50.0769231 C200.328786,50.7869858 201.260223,51.3668617 202.281813,51.816568 C203.303404,52.2662744 204.306951,52.4911243 205.292486,52.4911243 C206.398208,52.4911243 207.221477,52.2899428 207.762319,51.887574 C208.303161,51.4852051 208.573578,50.9408318 208.573578,50.2544379 C208.573578,49.8994065 208.495458,49.5917173 208.339214,49.3313609 C208.182971,49.0710046 207.954619,48.8402377 207.654151,48.6390533 C207.353683,48.4378688 206.993127,48.2485216 206.572472,48.0710059 L205.184318,47.4852071 L202.119562,46.2071006 C201.518626,45.970413 200.935727,45.6627238 200.370848,45.2840237 C199.805968,44.9053236 199.30119,44.461541 198.856497,43.9526627 C198.411805,43.4437844 198.057258,42.8520744 197.792847,42.1775148 C197.528435,41.5029552 197.396231,40.7396492 197.396231,39.887574 C197.396231,38.9408237 197.600546,38.0473415 198.009182,37.2071006 C198.417818,36.3668597 198.994708,35.6331392 199.739868,35.0059172 C200.485028,34.3786951 201.368391,33.8875757 202.389981,33.5325444 C203.411572,33.177513 204.535305,33 205.761213,33 C207.131347,33 208.483432,33.2603524 209.817509,33.7810651 C211.151586,34.3017778 212.323393,35.0591666 213.332965,36.0532544 L210.628768,39.3550296 C209.85957,38.7633107 209.090384,38.3076939 208.321186,37.9881657 C207.551989,37.6686375 206.698673,37.5088757 205.761213,37.5088757 C204.847791,37.5088757 204.12067,37.6923059 203.579828,38.0591716 C203.038986,38.4260373 202.768569,38.9408251 202.768569,39.6035503 C202.768569,39.9585817 202.858708,40.2603538 203.038989,40.5088757 C203.219269,40.7573977 203.471658,40.9822475 203.796164,41.183432 C204.120669,41.3846164 204.499253,41.5739636 204.931926,41.7514793 C205.3646,41.928995 205.833323,42.1242593 206.338109,42.3372781 L209.366809,43.5443787 C210.809055,44.1124289 211.944806,44.8934862 212.774097,45.887574 C213.603389,46.8816618 214.018028,48.1952581 214.018028,49.8284024 C214.018028,50.7988214 213.819722,51.715972 213.423105,52.5798817 C213.026487,53.4437913 212.449598,54.2011802 211.692419,54.852071 C210.93524,55.5029618 210.003803,56.0236667 208.898082,56.4142012 C207.79236,56.8047357 206.542433,57 205.148262,57 Z M218.701296,56.5739645 L218.701296,33.4260355 L224.001522,33.4260355 L224.001522,42.3372781 L232.114113,42.3372781 L232.114113,33.4260355 L237.450395,33.4260355 L237.450395,56.5739645 L232.114113,56.5739645 L232.114113,46.9171598 L224.001522,46.9171598 L224.001522,56.5739645 L218.701296,56.5739645 Z M243.68407,56.5739645 L243.68407,33.4260355 L258.394901,33.4260355 L258.394901,37.8284024 L248.984296,37.8284024 L248.984296,42.4792899 L256.988718,42.4792899 L256.988718,46.8461538 L248.984296,46.8461538 L248.984296,52.1715976 L258.75546,52.1715976 L258.75546,56.5739645 L243.68407,56.5739645 Z M264.624569,56.5739645 L264.624569,33.4260355 L269.924795,33.4260355 L269.924795,52.1715976 L279.227233,52.1715976 L279.227233,56.5739645 L264.624569,56.5739645 Z M284.735782,56.5739645 L284.735782,37.8284024 L278.281765,37.8284024 L278.281765,33.4260355 L296.52608,33.4260355 L296.52608,37.8284024 L290.072064,37.8284024 L290.072064,56.5739645 L284.735782,56.5739645 Z M300.384068,56.5739645 L300.384068,33.4260355 L315.094899,33.4260355 L315.094899,37.8284024 L305.684294,37.8284024 L305.684294,42.4792899 L313.688717,42.4792899 L313.688717,46.8461538 L305.684294,46.8461538 L305.684294,52.1715976 L315.455459,52.1715976 L315.455459,56.5739645 L300.384068,56.5739645 Z M320.323013,56.5739645 L320.323013,33.4260355 L328.796164,33.4260355 C330.04611,33.4260355 331.217917,33.5443775 332.31162,33.7810651 C333.405323,34.0177527 334.360796,34.4141984 335.178068,34.9704142 C335.995341,35.52663 336.644342,36.2662676 337.12509,37.1893491 C337.605839,38.1124307 337.846209,39.2603482 337.846209,40.6331361 C337.846209,42.3372866 337.467626,43.7396395 336.710447,44.8402367 C335.953268,45.9408339 334.937702,46.7633109 333.663718,47.3076923 L339,56.5739645 L333.050767,56.5739645 L328.543772,48.2307692 L325.623239,48.2307692 L325.623239,56.5739645 L320.323013,56.5739645 Z M325.623239,44.0769231 L328.363492,44.0769231 C329.757663,44.0769231 330.821303,43.7869851 331.554445,43.2071006 C332.287586,42.627216 332.654151,41.7692364 332.654151,40.6331361 C332.654151,39.4970357 332.287586,38.7041443 331.554445,38.2544379 C330.821303,37.8047315 329.757663,37.5798817 328.363492,37.5798817 L325.623239,37.5798817 L325.623239,44.0769231 Z" id="NIGHT-SHELTER-Copy" fill="#003B5C"></path>
        <path d="M90.8847818,24.6647059 L87,6.33529412 L89.4035341,6.33529412 L91.331951,16.3102941 C91.4996402,17.3161815 91.6766429,18.3034265 91.8629643,19.2720588 C92.0492857,20.2406911 92.2262884,21.2279361 92.3939776,22.2338235 L92.5057699,22.2338235 C92.7107235,21.2279361 92.9249899,20.2360343 93.1485755,19.2580882 C93.3721612,18.2801422 93.5864276,17.297554 93.7913812,16.3102941 L96.3346556,6.33529412 L98.458709,6.33529412 L101.001983,16.3102941 C101.225569,17.2789264 101.449151,18.2568578 101.672737,19.2441176 C101.896323,20.2313775 102.119905,21.2279361 102.343491,22.2338235 L102.455283,22.2338235 C102.622972,21.2279361 102.790659,20.2360343 102.958348,19.2580882 C103.126038,18.2801422 103.30304,17.297554 103.489362,16.3102941 L105.417779,6.33529412 L107.653624,6.33529412 L103.852687,24.6647059 L101.05788,24.6647059 L98.2910206,13.6279412 C98.1233313,12.9200945 97.9696184,12.2262289 97.8298774,11.5463235 C97.6901363,10.8664182 97.5457394,10.1725526 97.3966823,9.46470588 L97.28489,9.46470588 C97.1358329,10.1725526 96.98212,10.8664182 96.8237468,11.5463235 C96.6653737,12.2262289 96.5116608,12.9200945 96.3626037,13.6279412 L93.6516408,24.6647059 L90.8847818,24.6647059 Z M110.839704,24.6647059 L110.839704,6.33529412 L121.404075,6.33529412 L121.404075,8.29117647 L113.159394,8.29117647 L113.159394,14.0470588 L120.118464,14.0470588 L120.118464,16.0308824 L113.159394,16.0308824 L113.159394,22.6808824 L121.683556,22.6808824 L121.683556,24.6647059 L110.839704,24.6647059 Z M125.568338,24.6647059 L125.568338,6.33529412 L127.888027,6.33529412 L127.888027,22.6808824 L135.909124,22.6808824 L135.909124,24.6647059 L125.568338,24.6647059 Z M139.1511,24.6647059 L139.1511,6.33529412 L141.47079,6.33529412 L141.47079,22.6808824 L149.491886,22.6808824 L149.491886,24.6647059 L139.1511,24.6647059 Z M152.733862,24.6647059 L152.733862,6.33529412 L155.053552,6.33529412 L155.053552,24.6647059 L152.733862,24.6647059 Z M160.084205,24.6647059 L160.084205,6.33529412 L162.487739,6.33529412 L169.111432,17.8470588 L171.095745,21.6470588 L171.207537,21.6470588 C171.151641,20.7156816 171.091087,19.7517207 171.025875,18.7551471 C170.960662,17.7585734 170.928056,16.7759852 170.928056,15.8073529 L170.928056,6.33529412 L173.135954,6.33529412 L173.135954,24.6647059 L170.73242,24.6647059 L164.080779,13.125 L162.096466,9.35294118 L161.984674,9.35294118 C162.059202,10.2843184 162.129072,11.2296521 162.194284,12.1889706 C162.259497,13.1482891 162.292102,14.1122501 162.292102,15.0808824 L162.292102,24.6647059 L160.084205,24.6647059 Z M185.377209,25 C184.16612,25 183.052866,24.7857865 182.037414,24.3573529 C181.021963,23.9289194 180.150923,23.3095629 179.42427,22.4992647 C178.697616,21.6889665 178.129345,20.6924079 177.719437,19.5095588 C177.30953,18.3267098 177.10458,16.9902035 177.10458,15.5 C177.10458,14.028424 177.314188,12.7058882 177.733411,11.5323529 C178.152635,10.3588177 178.73488,9.362259 179.480166,8.54264706 C180.225451,7.72303512 181.115123,7.09436493 182.149207,6.65661765 C183.18329,6.21887036 184.30586,6 185.516949,6 C186.150442,6 186.732688,6.06519543 187.263704,6.19558824 C187.79472,6.32598104 188.279148,6.49828324 188.717003,6.7125 C189.154859,6.92671676 189.546128,7.1688712 189.890822,7.43897059 C190.235517,7.70906998 190.538285,7.98382213 190.799135,8.26323529 L189.513523,9.77205882 C189.04772,9.28774268 188.507396,8.87794285 187.892535,8.54264706 C187.277675,8.20735126 186.504452,8.03970588 185.572845,8.03970588 C184.641238,8.03970588 183.802805,8.21200808 183.057519,8.55661765 C182.312233,8.90122721 181.67875,9.39484973 181.15705,10.0375 C180.63535,10.6801503 180.230107,11.4578386 179.941309,12.3705882 C179.652511,13.2833379 179.508114,14.3078375 179.508114,15.4441176 C179.508114,16.5990254 179.643195,17.6374954 179.913361,18.5595588 C180.183527,19.4816223 180.574796,20.2686242 181.08718,20.9205882 C181.599564,21.5725523 182.233047,22.0754884 182.987649,22.4294118 C183.74225,22.7833351 184.61329,22.9602941 185.600793,22.9602941 C186.252918,22.9602941 186.872428,22.862501 187.45934,22.6669118 C188.046252,22.4713226 188.526023,22.205884 188.898666,21.8705882 L188.898666,17.0926471 L185.013884,17.0926471 L185.013884,15.1647059 L191.022719,15.1647059 L191.022719,22.8764706 C190.426491,23.4911795 189.643952,23.9987725 188.675081,24.3992647 C187.70621,24.7997569 186.60693,25 185.377209,25 Z M199.211504,24.6647059 L199.211504,8.29117647 L193.677786,8.29117647 L193.677786,6.33529412 L207.09286,6.33529412 L207.09286,8.29117647 L201.559142,8.29117647 L201.559142,24.6647059 L199.211504,24.6647059 Z M217.154165,25 C215.998972,25 214.941614,24.7764728 213.982059,24.3294118 C213.022504,23.8823507 212.198044,23.2443669 211.508655,22.4154412 C210.819266,21.5865155 210.2836,20.5806432 209.901641,19.3977941 C209.519682,18.2149451 209.328705,16.8877525 209.328705,15.4161765 C209.328705,13.9446005 209.519682,12.6267215 209.901641,11.4625 C210.2836,10.2982785 210.819266,9.31103346 211.508655,8.50073529 C212.198044,7.69043713 213.022504,7.07108057 213.982059,6.64264706 C214.941614,6.21421354 215.998972,6 217.154165,6 C218.309358,6 219.366716,6.21887036 220.326271,6.65661765 C221.285826,7.09436493 222.114944,7.7183783 222.813649,8.52867647 C223.512355,9.33897464 224.052679,10.3262197 224.434638,11.4904412 C224.816596,12.6546627 225.007573,13.963228 225.007573,15.4161765 C225.007573,16.8877525 224.816596,18.2149451 224.434638,19.3977941 C224.052679,20.5806432 223.512355,21.5865155 222.813649,22.4154412 C222.114944,23.2443669 221.285826,23.8823507 220.326271,24.3294118 C219.366716,24.7764728 218.309358,25 217.154165,25 Z M217.154165,22.9602941 C217.973979,22.9602941 218.714596,22.7833351 219.376037,22.4294118 C220.037478,22.0754884 220.60575,21.5678955 221.080869,20.9066176 C221.555989,20.2453398 221.923968,19.4536811 222.184818,18.5316176 C222.445668,17.6095542 222.576091,16.5710842 222.576091,15.4161765 C222.576091,14.2798963 222.445668,13.2553967 222.184818,12.3426471 C221.923968,11.4298974 221.555989,10.6568659 221.080869,10.0235294 C220.60575,9.39019291 220.037478,8.90122721 219.376037,8.55661765 C218.714596,8.21200808 217.973979,8.03970588 217.154165,8.03970588 C216.334351,8.03970588 215.593735,8.21200808 214.932294,8.55661765 C214.270853,8.90122721 213.702581,9.39019291 213.227461,10.0235294 C212.752342,10.6568659 212.384362,11.4298974 212.123512,12.3426471 C211.862662,13.2553967 211.732239,14.2798963 211.732239,15.4161765 C211.732239,16.5710842 211.862662,17.6095542 212.123512,18.5316176 C212.384362,19.4536811 212.752342,20.2453398 213.227461,20.9066176 C213.702581,21.5678955 214.270853,22.0754884 214.932294,22.4294118 C215.593735,22.7833351 216.334351,22.9602941 217.154165,22.9602941 Z M228.948251,24.6647059 L228.948251,6.33529412 L231.351785,6.33529412 L237.975478,17.8470588 L239.959791,21.6470588 L240.071583,21.6470588 C240.015687,20.7156816 239.955133,19.7517207 239.889921,18.7551471 C239.824708,17.7585734 239.792102,16.7759852 239.792102,15.8073529 L239.792102,6.33529412 L242,6.33529412 L242,24.6647059 L239.596466,24.6647059 L232.944825,13.125 L230.960512,9.35294118 L230.84872,9.35294118 C230.923248,10.2843184 230.993118,11.2296521 231.05833,12.1889706 C231.123543,13.1482891 231.156149,14.1122501 231.156149,15.0808824 L231.156149,24.6647059 L228.948251,24.6647059 Z" id="WELLINGTON" fill="#00517E"></path>
        <path d="M1.4850352,2.3254047 C3.78053115,0.821985452 24.9015022,0.108919972 33.9560012,0.0154830381 C53.9981572,-0.191339847 64.7892224,1.73186307 66.0989057,2.3254047 C68.8721516,3.58222525 68.3834964,12.8261072 66.0989057,12.9278527 C63.7815989,13.0310552 49.3073974,11.1125646 33.9560012,11.1125646 C18.1817333,11.1125646 4.34832636,13.4338393 1.15973785,12.9278527 C-0.0583554297,12.7345575 -0.810460749,3.82882396 1.4850352,2.3254047 Z" id="Path-Copy" fill="#003B5C"></path>
        <path d="M5.43373519,16.2844855 C6.45849032,14.1267517 12.4219197,15.082346 13.3236799,16.2844855 C14.22544,17.486625 14.22544,56.7290182 13.3236799,58.4265652 C12.4219197,60.1241122 7.05580747,60.8901633 6.23563804,58.4265652 C5.41546861,55.9629671 4.40898006,18.4422193 5.43373519,16.2844855 Z" id="Path-2-Copy" fill="#FF7F32"></path>
        <path d="M62.5662648,16.2844855 C63.5910199,18.4422193 62.5845314,55.9629671 61.764362,58.4265652 C60.9441925,60.8901633 55.5780803,60.1241122 54.6763201,58.4265652 C53.77456,56.7290182 53.77456,17.486625 54.6763201,16.2844855 C55.5780803,15.082346 61.5415097,14.1267517 62.5662648,16.2844855 Z" id="Path-2-Copy-2" fill="#FF7F32"></path>
        <path d="M26.4048513,57.2631799 C25.0415448,48.5372819 24.0823284,22.4503789 26.4048513,20.3549101 C28.7273742,18.2594413 42.0114427,18.6609524 43.3364141,21.1006535 C44.6613855,23.5403546 43.7220698,55.1704236 42.9390274,57.2631799 C42.1559851,59.3559363 26.7999017,59.7917157 26.4048513,57.2631799 Z" id="Path-3-Copy" fill="#A4D65E"></path>
    </g>
</svg>