<?xml version="1.0" encoding="UTF-8"?>
<svg width="52px" height="52px" viewBox="0 0 52 52" version="1.1" xmlns="http://www.w3.org/2000/svg" xmlns:xlink="http://www.w3.org/1999/xlink">
    <!-- Generator: Sketch 52.5 (67469) - http://www.bohemiancoding.com/sketch -->
    <title>VD / Icons / phone</title>
    <desc>Created with Sketch.</desc>
    <g id="VD-/-Icons-/-phone" stroke="none" stroke-width="1" fill="none" fill-rule="evenodd">
        <circle id="Oval" fill="#FF7F32" cx="26" cy="26" r="26"></circle>
        <path d="M34.8500881,12 C36.4056617,12.4100529 37.1884066,13.7200062 38.1844105,14.7910732 C38.8818015,15.5409695 39.1063574,16.4356415 38.9551054,17.3778668 C38.789042,18.4113394 38.5554486,19.4552688 38.1824022,20.4312294 C36.9373659,23.6897429 34.9384544,26.4976215 32.6115582,29.0700994 C29.4289899,32.5885371 25.8842954,35.6996606 21.7704916,38.1264913 C20.3524882,38.963029 18.8801346,39.6835469 17.2212577,39.9519361 C16.5034069,40.0682049 15.8450527,39.9881612 15.2621362,39.5498503 C14.4643289,38.9498337 13.6409154,38.3748385 12.9017261,37.7092184 C11.9649678,36.865834 11.7527129,35.7849327 12.2900655,34.6519968 C13.1469929,32.8449758 14.4623205,31.4262228 16.2132038,30.4223775 C17.0707588,29.9307871 17.9620788,29.9111186 18.8533988,30.3165655 C19.3261084,30.5314262 19.7906592,30.7719308 20.2341226,31.0410669 C21.3825082,31.7379326 22.5521068,31.6953588 23.5740934,30.9162086 C26.1761302,28.9322948 28.389807,26.5599884 30.2074671,23.8500793 C30.9391252,22.7592192 30.9052347,21.6007639 30.1037873,20.4863762 C28.7061182,18.5431688 28.1602302,17.4177019 30.3927351,14.7274614 C31.3967723,13.5173449 32.5410158,12.4798888 34.096966,12 L34.8500881,12 Z" id="Fill-1" fill="#FFFFFF"></path>
    </g>
</svg>