<?xml version="1.0" encoding="UTF-8"?>
<svg width="48px" height="49px" viewBox="0 0 48 49" version="1.1" xmlns="http://www.w3.org/2000/svg" xmlns:xlink="http://www.w3.org/1999/xlink">
    <!-- Generator: Sketch 52.5 (67469) - http://www.bohemiancoding.com/sketch -->
    <title>VD / Icons / Search icon</title>
    <desc>Created with Sketch.</desc>
    <g id="VD-/-Icons-/-Search-icon" stroke="none" stroke-width="1" fill="none" fill-rule="evenodd">
        <path d="M19.5,33 C26.9558441,33 33,26.9558441 33,19.5 C33,12.0441559 26.9558441,6 19.5,6 C12.0441559,6 6,12.0441559 6,19.5 C6,26.9558441 12.0441559,33 19.5,33 Z M19.5,39 C8.73044738,39 0,30.2695526 0,19.5 C0,8.73044738 8.73044738,0 19.5,0 C30.2695526,0 39,8.73044738 39,19.5 C39,30.2695526 30.2695526,39 19.5,39 Z" id="Oval" fill="#666666"></path>
        <path d="M29.8016195,34.0413533 C28.6742112,32.8272213 28.7445147,30.9290278 29.9586467,29.8016195 C31.1727787,28.6742112 33.0709722,28.7445147 34.1983805,29.9586467 L47.1983805,43.9586467 C48.3257888,45.1727787 48.2554853,47.0709722 47.0413533,48.1983805 C45.8272213,49.3257888 43.9290278,49.2554853 42.8016195,48.0413533 L29.8016195,34.0413533 Z" id="Line" fill="#666666"></path>
    </g>
</svg>