<?xml version="1.0" encoding="UTF-8"?>
<svg width="188px" height="188px" viewBox="0 0 188 188" version="1.1" xmlns="http://www.w3.org/2000/svg" xmlns:xlink="http://www.w3.org/1999/xlink">
    <!-- Generator: Sketch 52.5 (67469) - http://www.bohemiancoding.com/sketch -->
    <title>VD / Icons / Stage 2</title>
    <desc>Created with Sketch.</desc>
    <g id="VD-/-Icons-/-Stage-2" stroke="none" stroke-width="1" fill="none" fill-rule="evenodd">
        <path d="M188,94 C188,145.914706 145.914706,188 94,188 C42.0852944,188 0,145.914706 0,94 C0,42.0852944 42.0852944,0 94,0 C145.914706,0 188,42.0852944 188,94" id="Fill-1" fill="#FF7F32"></path>
        <path d="M77.6056541,81 C80.5572628,81 83,78.526609 83,75.5 C83,72.473391 80.5572628,70 77.6056541,70 L49.3963415,70 C46.4435331,70 44,72.4735887 44,75.5 C44,78.5264113 46.4435331,81 49.3963415,81 L77.6056541,81 Z M77.6056541,87 L49.3963415,87 C43.1132946,87 38,81.8238117 38,75.5 C38,69.1761883 43.1132946,64 49.3963415,64 L77.6056541,64 C83.8878361,64 89,69.1763164 89,75.5 C89,81.8236836 83.8878361,87 77.6056541,87 Z" id="Stroke-4" fill="#FFFFFF" fill-rule="nonzero"></path>
        <path d="M88.8971799,81 C89.4848467,81 90,80.475507 90,79.8234972 L90,62.1765028 C90,61.5239376 89.4853058,61 88.8971799,61 L37.1038183,61 C36.5152734,61 36,61.5243512 36,62.1765028 L36,79.8234972 C36,80.4750934 36.5157326,81 37.1038183,81 L88.8971799,81 Z M88.8971799,87 L37.1038183,87 C33.1781136,87 30,83.7653532 30,79.8234972 L30,62.1765028 C30,58.2338705 33.1778841,55 37.1038183,55 L88.8971799,55 C92.8231544,55 96,58.2338987 96,62.1765028 L96,79.8234972 C96,83.7653251 92.8229251,87 88.8971799,87 Z" id="Stroke-6" fill="#FFFFFF" fill-rule="nonzero"></path>
        <path d="M91.5,53 C91.5,51.3431458 92.8431458,50 94.5,50 C96.1568542,50 97.5,51.3431458 97.5,53 L97.5,84 C97.5,85.6568542 96.1568542,87 94.5,87 C92.8431458,87 91.5,85.6568542 91.5,84 L91.5,53 Z" id="Stroke-8" fill="#FFFFFF" fill-rule="nonzero"></path>
        <path d="M29.5,53 C29.5,51.3431458 30.8431458,50 32.5,50 C34.1568542,50 35.5,51.3431458 35.5,53 L35.5,85 C35.5,86.6568542 34.1568542,88 32.5,88 C30.8431458,88 29.5,86.6568542 29.5,85 L29.5,53 Z" id="Stroke-10" fill="#FFFFFF" fill-rule="nonzero"></path>
        <path d="M29.5,118 C29.5,116.343146 30.8431458,115 32.5,115 C34.1568542,115 35.5,116.343146 35.5,118 L35.5,130 C35.5,131.656854 34.1568542,133 32.5,133 C30.8431458,133 29.5,131.656854 29.5,130 L29.5,118 Z" id="Stroke-12" fill="#FFFFFF" fill-rule="nonzero"></path>
        <path d="M91.5,118 C91.5,116.343146 92.8431458,115 94.5,115 C96.1568542,115 97.5,116.343146 97.5,118 L97.5,130 C97.5,131.656854 96.1568542,133 94.5,133 C92.8431458,133 91.5,131.656854 91.5,130 L91.5,118 Z" id="Stroke-14" fill="#FFFFFF" fill-rule="nonzero"></path>
        <path d="M89.2802465,115 C91.8645232,115 94,112.848982 94,110.223753 L94,91.7752369 C94,89.1509205 91.8644283,87 89.2802465,87 L36.7197535,87 C34.1355717,87 32,89.1509205 32,91.7752369 L32,110.223753 C32,112.848982 34.1354768,115 36.7197535,115 L89.2802465,115 Z M89.2802465,121 L36.7197535,121 C30.8119902,121 26,116.152991 26,110.223753 L26,91.7752369 C26,85.8467927 30.8122064,81 36.7197535,81 L89.2802465,81 C95.1877936,81 100,85.8467927 100,91.7752369 L100,110.223753 C100,116.152991 95.1880098,121 89.2802465,121 Z" id="Stroke-18" fill="#FFFFFF" fill-rule="nonzero"></path>
        <path d="M155.236469,118 C155.650403,118 156,117.650971 156,117.242273 L156,79.7567298 C156,79.3489974 155.650371,79 155.236469,79 L114.763531,79 C114.349097,79 114,79.3485304 114,79.7567298 L114,117.242273 C114,117.651438 114.349065,118 114.763531,118 L155.236469,118 Z M155.236469,124 L114.763531,124 C111.037293,124 108,120.967086 108,117.242273 L108,79.7567298 C108,76.0326364 111.03757,73 114.763531,73 L155.236469,73 C158.961652,73 162,76.0328571 162,79.7567298 L162,117.242273 C162,120.966865 158.96193,124 155.236469,124 Z" id="Stroke-22" fill="#FFFFFF" fill-rule="nonzero"></path>
        <path d="M111,101.5 C109.343146,101.5 108,100.156854 108,98.5 C108,96.8431458 109.343146,95.5 111,95.5 L159,95.5 C160.656854,95.5 162,96.8431458 162,98.5 C162,100.156854 160.656854,101.5 159,101.5 L111,101.5 Z" id="Stroke-24" fill="#FFFFFF" fill-rule="nonzero"></path>
        <path d="M109.5,121 C109.5,119.343146 110.843146,118 112.5,118 C114.156854,118 115.5,119.343146 115.5,121 L115.5,129 C115.5,130.656854 114.156854,132 112.5,132 C110.843146,132 109.5,130.656854 109.5,129 L109.5,121 Z" id="Stroke-26" fill="#FFFFFF" fill-rule="nonzero"></path>
        <path d="M154.5,122 C154.5,120.343146 155.843146,119 157.5,119 C159.156854,119 160.5,120.343146 160.5,122 L160.5,130 C160.5,131.656854 159.156854,133 157.5,133 C155.843146,133 154.5,131.656854 154.5,130 L154.5,122 Z" id="Stroke-28" fill="#FFFFFF" fill-rule="nonzero"></path>
        <path d="M137,86 C137,87.6567878 135.65753,89 133.999522,89 C132.34247,89 131,87.6567878 131,86 C131,84.3432122 132.34247,83 133.999522,83 C135.65753,83 137,84.3432122 137,86" id="Fill-30" fill="#FFFFFF"></path>
        <path d="M138,109 C138,110.656788 136.65753,112 134.999522,112 C133.34247,112 132,110.656788 132,109 C132,107.343212 133.34247,106 134.999522,106 C136.65753,106 138,107.343212 138,109" id="Fill-32" fill="#FFFFFF"></path>
    </g>
</svg>