<?xml version="1.0" encoding="UTF-8"?>
<svg width="188px" height="188px" viewBox="0 0 188 188" version="1.1" xmlns="http://www.w3.org/2000/svg" xmlns:xlink="http://www.w3.org/1999/xlink">
    <!-- Generator: Sketch 52.5 (67469) - http://www.bohemiancoding.com/sketch -->
    <title>VD / Icons / Stage 1</title>
    <desc>Created with Sketch.</desc>
    <g id="VD-/-Icons-/-Stage-1" stroke="none" stroke-width="1" fill="none" fill-rule="evenodd">
        <path d="M188,94 C188,145.914706 145.914706,188 94,188 C42.0852944,188 0,145.914706 0,94 C0,42.0852944 42.0852944,0 94,0 C145.914706,0 188,42.0852944 188,94" id="Fill-1" fill="#FF7F32"></path>
        <path d="M149,92.1570444 C149,87.6409173 145.420715,84 141.031819,84 L48.7862424,84 C47.8112638,84 47,84.8253518 47,85.8686576 L47,107 L149,107 L149,92.1570444 Z M152,113 L44,113 C42.3431458,113 41,111.656854 41,110 L41,85.8686576 C41,81.5345449 44.4742134,78 48.7862424,78 L141.031819,78 C148.757569,78 155,84.3499209 155,92.1570444 L155,110 C155,111.656854 153.656854,113 152,113 Z" id="Stroke-4" fill="#FFFFFF" fill-rule="nonzero"></path>
        <path d="M66.6819245,75 C67.9702348,75 69,74.0011555 69,72.8416102 L69,70.4187893 C69,67.4659249 66.4579423,65 63.3216021,65 L51.980136,65 C49.2277932,65 47,67.1608993 47,69.7405168 L47,72.8416102 C47,74.000789 48.0304123,75 49.3190831,75 L66.6819245,75 Z M66.6819245,81 L49.3190831,81 C44.7572871,81 41,77.356485 41,72.8416102 L41,69.7405168 C41,63.8055658 45.9543292,59 51.980136,59 L63.3216021,59 C69.73151,59 75,64.1107024 75,70.4187893 L75,72.8416102 C75,77.3564891 71.2436987,81 66.6819245,81 Z" id="Stroke-6" fill="#FFFFFF" fill-rule="nonzero"></path>
        <path d="M39.5,51 C39.5,49.3431458 40.8431458,48 42.5,48 C44.1568542,48 45.5,49.3431458 45.5,51 L45.5,129 C45.5,130.656854 44.1568542,132 42.5,132 C40.8431458,132 39.5,130.656854 39.5,129 L39.5,51 Z" id="Stroke-8" fill="#FFFFFF" fill-rule="nonzero"></path>
        <path d="M149.5,113 C149.5,111.343146 150.843146,110 152.5,110 C154.156854,110 155.5,111.343146 155.5,113 L155.5,129 C155.5,130.656854 154.156854,132 152.5,132 C150.843146,132 149.5,130.656854 149.5,129 L149.5,113 Z" id="Stroke-10" fill="#FFFFFF" fill-rule="nonzero"></path>
        <path d="M149,92.3578347 C149,87.73538 145.304401,84 140.763124,84 L85.815804,84 C84.8205494,84 84,84.8296209 84,85.8686576 L84,107 L149,107 L149,92.3578347 Z M152,113 L81,113 C79.3431458,113 78,111.656854 78,110 L78,85.8686576 C78,81.5305895 81.4919843,78 85.815804,78 L140.763124,78 C148.632575,78 155,84.4359667 155,92.3578347 L155,110 C155,111.656854 153.656854,113 152,113 Z" id="Stroke-12" fill="#FFFFFF" fill-rule="nonzero"></path>
    </g>
</svg>