<?xml version="1.0" encoding="UTF-8"?>
<svg width="188px" height="188px" viewBox="0 0 188 188" version="1.1" xmlns="http://www.w3.org/2000/svg" xmlns:xlink="http://www.w3.org/1999/xlink">
    <!-- Generator: Sketch 52.5 (67469) - http://www.bohemiancoding.com/sketch -->
    <title>VD / Icons / Stage 3</title>
    <desc>Created with Sketch.</desc>
    <g id="VD-/-Icons-/-Stage-3" stroke="none" stroke-width="1" fill="none" fill-rule="evenodd">
        <path d="M188,94 C188,145.914706 145.913929,188 93.9994995,188 C42.0860713,188 0,145.914706 0,94 C0,42.0852944 42.0860713,0 93.9994995,0 C145.913929,0 188,42.0852944 188,94" id="Fill-1" fill="#FF7F32"></path>
        <path d="M140,77 C140,70.9246368 135.075605,66 129.000995,66 C122.925255,66 118,70.9247717 118,77 C118,83.0752283 122.925255,88 129.000995,88 C135.075605,88 140,83.0753632 140,77 Z M146,77 C146,86.3890057 138.389379,94 129.000995,94 C119.611679,94 112,86.3890687 112,77 C112,67.6109313 119.611679,60 129.000995,60 C138.389379,60 146,67.6109943 146,77 Z" id="Stroke-6" fill="#FFFFFF" fill-rule="nonzero"></path>
        <path d="M146,115.748976 C146,103.613819 138.230968,94 129,94 C119.769032,94 112,103.613819 112,115.748976 C112,119.712511 119.215719,123 129,123 C138.784281,123 146,119.712511 146,115.748976 Z M152,115.748976 C152,133.417008 106,133.417008 106,115.748976 C106,100.547968 116.14015,88 129,88 C141.85985,88 152,100.547968 152,115.748976 Z" id="Stroke-10" fill="#FFFFFF" fill-rule="nonzero"></path>
        <path d="M69,75 C69,68.9246368 64.0756049,64 58.000995,64 C51.9252552,64 47,68.9247717 47,75 C47,81.0752283 51.9252552,86 58.000995,86 C64.0756049,86 69,81.0753632 69,75 Z M75,75 C75,84.3890057 67.3893794,92 58.000995,92 C48.6116786,92 41,84.3890687 41,75 C41,65.6109313 48.6116786,58 58.000995,58 C67.3893794,58 75,65.6109943 75,75 Z" id="Stroke-14" fill="#FFFFFF" fill-rule="nonzero"></path>
        <path d="M76,113.748976 C76,101.613177 68.2312696,92 59,92 C49.7687304,92 42,101.613177 42,113.748976 C42,117.712511 49.2157194,121 59,121 C68.7842806,121 76,117.712511 76,113.748976 Z M82,113.748976 C82,131.417008 36,131.417008 36,113.748976 C36,98.5472992 46.1398929,86 59,86 C71.8601071,86 82,98.5472992 82,113.748976 Z" id="Stroke-18" fill="#FFFFFF" fill-rule="nonzero"></path>
        <path d="M104,85.9995025 C104,79.9243521 99.0750976,75 93,75 C86.9249024,75 82,79.9243521 82,85.9995025 C82,92.0749086 86.9251582,97 93,97 C99.0748418,97 104,92.0749086 104,85.9995025 Z M110,85.9995025 C110,95.3886353 102.388532,103 93,103 C83.6114679,103 76,95.3886353 76,85.9995025 C76,76.6104935 83.611344,69 93,69 C102.388656,69 110,76.6104935 110,85.9995025 Z" id="Stroke-22" fill="#FFFFFF" fill-rule="nonzero"></path>
        <path d="M113,124.748976 C113,138.417008 73,138.417008 73,124.748976 C73,111.079943 81.95455,100 92.9989967,100 C104.04545,100 113,111.079943 113,124.748976" id="Fill-24" fill="#FD9242"></path>
        <path d="M110,124.748976 C110,112.613002 102.231142,103 92.9989967,103 C83.7686028,103 76,112.613352 76,124.748976 C76,128.712511 83.2157194,132 93,132 C102.784281,132 110,128.712511 110,124.748976 Z M116,124.748976 C116,142.417008 70,142.417008 70,124.748976 C70,109.547508 80.1397102,97 92.9989967,97 C105.859924,97 116,109.547091 116,124.748976 Z" id="Stroke-26" fill="#FFFFFF" fill-rule="nonzero"></path>
    </g>
</svg>